<svg xmlns="http://www.w3.org/2000/svg" id="Layer_1" data-name="Layer 1" width="1920" height="1080" viewBox="0 0 1920 1080">
  <defs>
    <style>.cls-1{fill:aqua;}.cls-2{fill:#4c8c0e;}.cls-3{fill:#63bc15;}.cls-4{fill:#77e520;}.cls-5{fill:none;stroke:#000;stroke-miterlimit:10;stroke-width:4px;}</style>
  </defs>
  <rect class="cls-1" width="1920" height="1080"/>
  <path class="cls-2" d="M1920,1080H0V813c30.82573-5.06482,76.45277-11.62012,132-16,82.36835-6.49475,179.40506-7.64288,348,9,204.91,20.22772,175.61627,31.77441,273,36,192.96582,8.373,209.355-49.78137,403-48,201.89819,1.8573,197.52576,65.19806,345,41,100.70581-16.52417,170.876-57.23993,303-47a583.86648,583.86648,0,0,1,116,21Z" transform="translate(0)"/>
  <path class="cls-3" d="M1920,1080H0V915c133.76746-21.51093,241.04391-17.69257,315-10,128.98727,13.41663,177.79459,40.82092,303,44,112.98169,2.86871,142.9527-17.67578,266-32,48.03186-5.59149,71.48218-5.72253,527,25,144.37537,9.73743,252.2572,17.18561,396-14a1083.52,1083.52,0,0,0,113-31Z" transform="translate(0)"/>
  <path class="cls-4" d="M1920,1024a816.5178,816.5178,0,0,0-86-26c-130.19678-31.66046-236.15015-23.27234-285-19-245.69885,21.48865-333.30115,46.24146-460,55-193.882,13.40295-235.73071-27.48651-491-53-140.61981-14.05457-344.30992-23.27393-598,5v94H1920Z" transform="translate(0)"/>
</svg>